<?xml version="1.0" encoding="utf-8"?>
<!-- Generator: Adobe Illustrator 26.0.3, SVG Export Plug-In . SVG Version: 6.00 Build 0)  -->
<svg version="1.1" id="レイヤー_1" xmlns="http://www.w3.org/2000/svg" xmlns:xlink="http://www.w3.org/1999/xlink" x="0px"
	 y="0px" viewBox="0 0 64 64" style="enable-background:new 0 0 64 64;" xml:space="preserve">
<style type="text/css">
	.st0{fill:none;stroke:#26499D;stroke-width:0.7619;stroke-miterlimit:10;}
	.st1{fill:#008DB7;}
</style>
<g>
	<path class="st0" d="M53.2,30.8c7.3-6.6,11-12.9,8.9-16.5c-2.9-5.1-16-3.3-30.7,3.8"/>
	<path class="st0" d="M10.4,32c4.2-3.7,9.5-7.5,15.6-11c1.8-1,3.7-2,5.5-2.9"/>
	<path class="st0" d="M31.8,18.5c-15-6.3-28.3-7.4-30.9-2.2c-1.9,3.8,2.2,9.9,9.8,16"/>
	<path class="st0" d="M53.7,31.2C49.4,27.7,43.3,24,37,20.9c-1.9-0.9-3.3-1.6-5.2-2.4"/>
	<g>
		<rect x="19.6" y="7.5" class="st1" width="6.3" height="49.1"/>
		<path class="st1" d="M47.7,8.6c0.4-0.3,0.6-0.7,0.6-1.1h8L34.4,28.3l23.8,28.2h-8.4L25.9,28.3L47.7,8.6z"/>
	</g>
	<path class="st0" d="M32.2,44.7c15,6.3,28.3,7.4,30.9,2.2c1.9-3.8-2.2-9.9-9.8-16"/>
	<path class="st0" d="M32.2,44.7c-1.8-0.8-3.7-1.6-5.6-2.5c-6.2-3-11.6-6.4-15.9-9.8"/>
	<path class="st0" d="M10.4,32c-7.3,6.6-11,12.9-8.9,16.5c2.9,5.1,16,3.3,30.7-3.8"/>
	<path class="st0" d="M53.2,30.8c-4.2,3.7-10.3,7.9-16.4,11.4c-1.8,1-3.7,2-5.5,2.9"/>
</g>
</svg>
