<svg xmlns="http://www.w3.org/2000/svg" data-name="グループ 100" viewBox="0 0 32 32"><path fill="#6c6154" d="M0 0h32v32H0z" data-name="長方形 102"/><path fill="#fff" d="M31.248 6.656q0 .16-.448.16a3.725 3.725 0 0 0-.608.032 2.2 2.2 0 0 0-1.12.768 28.527 28.527 0 0 0-3.328 5.04q-2.272 3.984-3.68 7.12a.246.246 0 0 1-.032.1 11.579 11.579 0 0 0-1.152 3.628q0 .976.64.976a3.515 3.515 0 0 0 2.128-1.184 17.4 17.4 0 0 0 2.288-2.624q.16-.256.3-.128t-.048.384q-.448.608-.576.768t-.416.528q-.288.368-.512.608t-.56.576q-.336.336-.624.592a4.072 4.072 0 0 1-2.4 1.12q-1.856 0-1.856-1.952a10.254 10.254 0 0 1 1.2-4.016q1.2-2.544 3.232-6.256A47.222 47.222 0 0 1 26.7 7.872a5.826 5.826 0 0 0-2.32.9 10.969 10.969 0 0 0-2.48 1.852q-.96.992-2.752 2.976t-2.556 2.816q1.92.064 3.088.064a4.893 4.893 0 0 0 2.16-.48 2.265 2.265 0 0 1-.72.944 2.368 2.368 0 0 1-1.408.48q-.88.048-2 .048T15.6 17.44q-7.936 8.192-12.7 8.192a2.18 2.18 0 0 1-1.588-.544 1.837 1.837 0 0 1-.56-1.376q0-.192.032-.576a4.069 4.069 0 0 1 .432-1.216q.4-.832.5-.832.256-.032.1.256a3.874 3.874 0 0 0-.416 1.44 1.472 1.472 0 0 0 .16.768 1.708 1.708 0 0 0 1.632.736q3.808 0 11.232-6.912-3.648-.192-4.256-.192-2.432 0-3.232.8a2.076 2.076 0 0 0-.576 1.536 1.74 1.74 0 0 0 .064.48 2.623 2.623 0 0 1-.656-.192.5.5 0 0 1-.24-.32.77.77 0 0 0-.032-.4.331.331 0 0 1 .08-.336 1.64 1.64 0 0 0 .192-.3.711.711 0 0 1 .256-.256q.208-.144.32-.224a3.421 3.421 0 0 1 .352-.208 3.4 3.4 0 0 1 .368-.176q.128-.048.384-.176a12.228 12.228 0 0 1 4.792-1.156q1.312 0 3.264.1 2.112-2.048 4.7-4.784a11.348 11.348 0 0 1 5.12-3.408h-1.76q-7.168 0-7.776 3.04a4.365 4.365 0 0 0-.032.592.67.67 0 0 0 .384.592q.16.1-.128.224t-.384.064a1.626 1.626 0 0 1-.528-.832 3.194 3.194 0 0 1-.208-.832 2.512 2.512 0 0 1 .56-1.664 3.39 3.39 0 0 1 1.492-1.016q.928-.336 1.7-.544a11.279 11.279 0 0 1 2.016-.3q1.76-.1 3.36-.1h3.48q.064 0 .032.032a10.779 10.779 0 0 1 2.944-1.056q.772.004.772.292z" data-name="パス 38"/></svg>