<svg xmlns="http://www.w3.org/2000/svg" id="レイヤー_1" x="0" y="0" version="1.1" viewBox="0 0 417.7 78" xml:space="preserve"><style>.st0{fill:none;stroke:#26499d;stroke-miterlimit:10}.st1{fill:#231815}.st2{fill:#008db7}</style><path d="M76.1 37.6c9.6-8.6 14.4-16.9 11.7-21.7-3.8-6.7-21-4.3-40.3 5M19.8 39.2c5.5-4.9 12.4-9.9 20.4-14.4 2.4-1.4 4.8-2.6 7.2-3.8" class="st0"/><path d="M48 21.5c-19.7-8.3-37.1-9.7-40.5-2.8-2.4 4.9 2.9 13 12.9 21" class="st0"/><path d="M76.7 38.2c-5.7-4.6-13.7-9.5-22-13.6-2.5-1.2-4.4-2.1-6.8-3.1" class="st0"/><path d="M123.3 67.3c0 1.3 0 2.2.2 4.3h-5.9v-.7c.1-1.6.2-2.3.2-3.6V54.6c-3.6 6.2-8 10.8-13.5 13.9l-1.1.9-.8-2.5 1.3-.9c4-4.1 7.7-10.8 10.1-17.7h-8.1c-1 0-1.2.1-2.4.3V45c.9.2 1.6.3 2.4.3h12v-1.6c0-1.4 0-1.6-.2-4.3h5.9c-.2 2.2-.2 3-.2 4.3v1.6h12.3c.9 0 1.4-.1 2.4-.3v3.4c-1-.2-1.5-.3-2.4-.3h-11.4c3.1 5.1 7 8.4 12.6 10.5l1.9.5-3.7 10.1-1.3-1.6c-4.3-3.8-7.8-9.4-10.3-16.6v16.3zM105.6 18c-1 0-1.2.1-2.4.3v-3.4c.9.2 1.6.3 2.4.3h3.1c0-1.4.1-2.3.1-3.9l-.2-3.9h5.5l-.2 3.8c0 1.7 0 2.5-.1 4.1h3.7c1.9 0 2.4 0 3.3-.2v2.2c0 16.6-.6 20.7-3.1 20.7-1 0-2.5-.6-4.5-1.6l-1.7-.6-.3-3.2c1 .4 2.3.6 3 .6.8 0 1.2-.6 1.4-2.1.4-2.9.5-6.2.5-13h-2.5c-.9 9.8-3.7 16.1-9.4 20.8l-.7.9-.8-2.4.8-.7c3.1-4.7 4.6-10.2 5.2-18.6h-3.1zm28.5-5.9c1.5 0 1.9 0 3-.2-.2 1.6-.2 2.9-.2 5.4v13.8c0 2.6 0 3.7.2 5.3-.8-.1-1.5-.2-2.3-.2H125.5c-1.5 0-1.8 0-3 .2.2-2 .2-2.4.2-5.3V17.2c0-2.7 0-3.4-.2-5.4.8.1 1.5.2 3 .2h8.6zm-6.8 2.9v18.4h4.7V15h-4.7zM148.7 20.2v5.4c0 1.3 0 2.2.2 4.3h-5.8v-.7c.1-1.6.2-2.3.2-3.6v-3.1c0-2.7 0-3.4-.2-5.4.8.1 1.5.2 3 .2h11.3v-5.9c0-1.4 0-1.6-.2-4.3h6.3c-.2 2.2-.2 3-.2 4.3v5.9h11.6c1.5 0 1.9 0 3-.2-.2 1.6-.2 2.9-.2 5.4v1c0 1.3 0 2.2.2 4.3h-5.8v-.7c.1-1.6.2-2.3.2-3.6v-3.3H167V33c0 2.2.3 2.4 3 2.4 3.5 0 4-.5 4.2-4.7v-2.2l1.7.9v2.2c.2 2.2.3 4.4.3 5.7 0 2.6-.6 4.2-1.8 5-.8.5-3.1.8-6.1.8-5.4 0-6.6-1.3-6.6-7.4V20.2h-13zM163.2 66h12.5c.9 0 1.4-.1 2.4-.3v3.4c-1-.2-1.5-.3-2.4-.3h-30.3c-1 0-1.2.1-2.4.3v-3.4c.9.2 1.6.3 2.4.3h11.8V50.7h-7.8c-1 0-1.2.1-2.4.3v-3.4c.9.2 1.6.3 2.4.3h21.8c.9 0 1.4-.1 2.4-.3V51c-1-.2-1.5-.3-2.4-.3h-8V66zm-4.3-39.9l-1 2.3c-2.2 7.7-6.3 13.5-11.8 16.6l-1.1.9-.8-2.5 1.3-.9c3.6-4.1 6-10 7.2-17.8l.3-2.7 5.9 4.1zM214.6 17c1.5 0 1.9 0 3-.2-.2 1.7-.2 3-.2 5.5v5.9c0 1.3 0 2.2.2 4.3h-5.8v-.7c.1-1.6.2-2.3.2-3.6v-8.3h-9.4v11.4c0 1.5 0 2.2.2 4.2h-5.6v-.6c.1-1.6.2-2.2.2-3.6V19.8h-9.1v8.3c0 1.3 0 2.2.2 4.3h-5.8v-.7c.1-1.6.2-2.3.2-3.6v-5.9c0-2.7 0-3.4-.2-5.5.8.1 1.5.2 3 .2h11.8v-4.4h-9.8c-1 0-1.2.1-2.4.3V9.4c.9.2 1.6.3 2.4.3h25c.9 0 1.4-.1 2.4-.3v3.4c-1-.2-1.5-.3-2.4-.3h-10V17h11.9zm-12.3 44.4c0 1.4.2 1.9.6 2.2.5.3 2.3.5 4.6.5 4.7 0 7.3-.5 7.9-1.4.4-.7.6-2.6.8-6v-2.9l1.8 1-.1 2.6v6.1c0 4.2-.4 5.7-1.7 6.7-1.1.9-3.9 1.3-8.8 1.3-9.3 0-10.2-.8-10.2-7.9V59h-8.5c-1.5 0-1.8 0-3 .2.2-1.9.2-2.5.2-5.4v-10c0-2.7 0-3.4-.2-5.4.8.1 1.5.2 3 .2h22.6c1.5 0 1.9 0 3-.2-.2 1.7-.2 2.9-.2 5.4v10c0 2.7 0 3.6.2 5.4-.8-.1-1.5-.2-2.3-.2h-9.5v2.4zM196 27.3c-1-.2-1.5-.3-2.4-.3h-1.8c-1 0-1.2.1-2.4.3v-3.4c.9.2 1.6.3 2.4.3h1.8c.9 0 1.4-.1 2.4-.3v3.4zm0 6.8c-1-.2-1.5-.3-2.4-.3h-1.8c-1 0-1.2 0-2.4.3v-3.4c.9.2 1.6.3 2.4.3h1.8c.9 0 1.4-.1 2.4-.3v3.4zm1.2 7.4h-6v5.7h6v-5.7zm-6.1 8.5v6.1h6V50h-6zm17.7-2.8v-5.7h-6.5v5.7h6.5zm-6.5 8.9h6.5V50h-6.5v6.1zm8.4-28.8c-1-.2-1.5-.3-2.4-.3h-2.1c-1 0-1.2.1-2.4.3v-3.4c.9.2 1.6.3 2.4.3h2.1c.9 0 1.4-.1 2.4-.3v3.4zm0 6.8c-1-.2-1.5-.3-2.4-.3h-2.1c-1 0-1.2 0-2.4.3v-3.4c.9.2 1.6.3 2.4.3h2.1c.9 0 1.4-.1 2.4-.3v3.4zM254.5 38.5c.9 0 1.4-.1 2.4-.3v3.4c-1-.2-1.5-.3-2.4-.3h-11.9v25.3c0 2.9-1 4.5-2.6 4.5-2.1 0-4.8-.8-9.6-2.8l-1.7-.4-.2-3.7c2.4.7 4.7 1.1 6.9 1.1.8 0 1.2-.5 1.2-1.8V41.4h-12.2c-1 0-1.2.1-2.4.3v-3.4c.9.2 1.6.3 2.4.3h12.2V33c0-2 0-3.2-.2-5.5h4.6c1.9-6.4 2.9-10 3.3-12.5h-15.2c-1 0-1.2.1-2.4.3v-3.4c.9.2 1.6.3 2.4.3H248c4 0 4.3 0 5.2-.2v2.2c-3.7 5.7-7 10.3-10.7 14.6v9.8h12zM282 50.2c-2 6-4.8 11.4-8.4 16.4l-.9 1.7-1.1-2.1 1-1.4c3-6.2 5.5-15.2 7-25h-3.9c-.7 0-1.3.1-1.9.2l.4.6 1 1.3-3.4 6.2-.4-2.4c-.6-3-1.2-5.7-2-8.8v30.6c0 1.3 0 2.2.2 4.3h-5v-.7c.1-1.6.2-2.3.2-3.6V43.7c-1.2 6.2-2.6 11.7-4.1 16.3l-.5 1.9-1.3-1.4.6-1.7c2.1-9.2 3.7-21.4 4.4-33.6h-1.8c-1 0-1.2.1-2.4.3v-3.4c.9.2 1.6.3 2.4.3h2.7v-11c0-1.4 0-1.6-.2-4.3h5c-.2 2.2-.2 3-.2 4.3v10.9h1.9c.9 0 1.4-.1 2.4-.3v3.4c-1-.2-1.5-.3-2.4-.3h-1.9v8l.6.9c1.2 1.8 1.2 1.9 2.6 3.9l.8 1.1v-2.6c.9.2 1.6.3 2.4.3h6.3v-13h-3.7c-.9 3.2-2.1 6.5-3.3 9l-.6 1.9-1.3-1.4.6-1.9c1-5.3 1.9-13.6 2.1-20.2V8.6l5.3 2-.6 2.8c-.3 2.4-.9 5.2-1.5 7.5h3v-9.5c0-1.4 0-1.6-.2-4.3h5.5c-.2 2.2-.2 3-.2 4.3V21h5c.9 0 1.4-.1 2.4-.3v3.4c-1-.2-1.5-.3-2.4-.3h-5v13h6.4c.9 0 1.4-.1 2.4-.3V40c-1-.2-1.5-.3-2.4-.3h-5.9c1.6 7 4.7 13.6 8.3 17.6l1.2 1.1-3.1 9.4-.9-2.1c-2.8-5.9-4.8-13.1-5.9-21.3v22.9c0 1.3 0 2.2.2 4.3H282v-.7c.1-1.6.2-2.3.2-3.6V50.2zM303.1 25.1c-1 0-1.2.1-2.4.3V22c.9.2 1.6.3 2.4.3h17v-1.9c-.2-3.9-.2-4.5-.2-8.8l-.2-4.4h6l-.1 4.3v2.7c0 4.4 0 5.5.2 8.2h7.7c.9 0 1.4-.1 2.4-.3v3.4c-1-.2-1.5-.3-2.4-.3h-7.6c.6 11.8 1.9 21.1 4.3 28.8 1.2 3.9 2.6 7 3.2 7 .6 0 .8-1.5 1-8.5v-1.1l-.1-3.4 1.9 1.1-.2 2.9c.1 2.7.1 7 .1 10 0 3.7-.2 5.5-.7 7.1-.6 1.7-1.5 2.7-2.7 2.7-2.5 0-4.9-3.9-7.5-11.9-2.8-8.9-4.4-20.2-5.1-34.8h-17zm10.7 33.8c1.6-.2 4.7-1 7-1.7l1.2-.6.4 2.9-1.3.6c-4.9 3.9-10.6 7.5-16.6 10.5l-1.5 1.1-2.1-11.3h1.6c1.9-.1 4.5-.4 5.7-.6v-19h-3.6c-1 0-1.2.1-2.4.3v-3.4c.9.2 1.6.3 2.4.3h12.9c.9 0 1.4-.1 2.4-.3v3.4c-1-.2-1.5-.3-2.4-.3h-3.8v18.1zm14.3-50.3c2 1.6 3.5 2.9 5.1 4.6l1.5 1.2-4.1 7.5-.6-2.4c-.8-2.5-1.7-4.9-3.1-8.4l-.7-1.3 1.1-2.2.8 1zM367.3 35.1c-1-.2-1.5-.3-2.4-.3h-14.4c-1 0-1.2.1-2.4.3V32c-1.9 1.9-4.1 3.7-6.2 5.1l-1.4 1.1-.8-2.5 1.4-1.1c5.6-5.8 11.1-16.9 12.8-25.4l.5-2.9L361 10l-1 2.9c3.2 6.2 8 11.1 14.8 15.1l1.7.6-3.6 9.9-1.7-1.9c-1.4-1.4-2.7-2.7-3.8-4-.1-.2-.1-.2-.2-.3v2.8zM358.8 47c-2.1 5.3-4.7 10.6-6.9 14.3h4l1.7-.1c1.7 0 1.8 0 4.6-.2l3.9-.2c-.7-2.2-1-3.2-2.3-7l-.8-1.7 1.5-2 .7 1.2.5.7.8 1.1c3.9 5.3 5.1 7.2 6.7 10l1.5 2.2-5.5 7-.6-2.6c-.4-1.7-1.1-4.4-1.6-6-5.6 2.6-13.2 5.2-20.3 7.2l-2.5.9-1.5-10.8 3.5.4H349.1c.9-4.3 1.7-9.8 2.3-14.4h-7.7c-1 0-1.2.1-2.4.3v-3.4c.9.2 1.6.3 2.4.3H372c.9 0 1.4-.1 2.4-.3v3.4c-1-.2-1.5-.3-2.4-.3h-13.2zm6.1-15c.8 0 1.4-.1 1.9-.2-3.6-4.4-6.4-9.8-7.9-15.9-2.1 5.5-6 11.3-10.5 15.9.8.1 1.4.2 2.1.2h14.4zM390.3 70.1c0 1.3 0 2.2.2 4.4h-5.4v-.7c.1-1.6.2-2.4.2-3.7v-20c-1.3 2.1-2.6 4-4.1 5.9l-1 1.7-1-2.3 1-1.3c4.4-9.3 7.7-20.2 9.2-30.9h-6.6c-1 0-1.2.1-2.4.3V20c.9.2 1.6.3 2.4.3h2.3v-7.7c0-1.5 0-1.7-.2-4.4h5.4c-.2 2.2-.2 3.1-.2 4.4v7.7h.3c1.5 0 2.3 0 4.8-.2v2.2c-1.2 6.8-2.7 12.4-4.9 17.6 1.4 1.2 3.9 3.8 5.6 5.8l1.2 1.3-3.6 7.9-.6-2.3c-.8-2.8-1.7-5.7-2.7-8.7v26.2zm17.1-2.1h5.8c.9 0 1.4-.1 2.4-.3v3.5c-1-.2-1.5-.3-2.4-.3h-17.1c-1 0-1.2.1-2.4.3v-3.5c.9.2 1.6.3 2.4.3h5.8V35h-4.4c-1 0-1.2.1-2.4.3v-3.5c.9.2 1.6.3 2.4.3h4.4V12.7c0-1.5 0-1.7-.2-4.4h5.9c-.2 2.2-.2 3.1-.2 4.4V32h4.8c.9 0 1.4-.1 2.4-.3v3.5c-1-.2-1.5-.3-2.4-.3h-4.8V68z" class="st1"/><g><path d="M31.9 7h8.3v64.4h-8.3z" class="st2"/><path d="M68.8 8.4c.6-.4.8-.9.8-1.4h10.5L51.3 34.4l31.2 37h-11l-31.4-37 28.7-26z" class="st2"/></g><path d="M48.4 55.8c19.7 8.3 37.1 9.7 40.5 2.8 2.4-4.9-2.9-13-12.9-21M48.4 55.8c-2.4-1-4.8-2.1-7.3-3.3-8.1-3.9-15.2-8.4-20.8-12.9" class="st0"/><path d="M19.8 39.2C10.3 47.8 5.4 56.1 8.1 60.9c3.8 6.7 21 4.3 40.3-5" class="st0"/><path d="M76.1 37.6C70.6 42.5 62.6 48 54.6 52.5c-2.4 1.4-4.8 2.6-7.2 3.8" class="st0"/></svg>