<?xml version="1.0" encoding="utf-8"?>
<!-- Generator: Adobe Illustrator 26.1.0, SVG Export Plug-In . SVG Version: 6.00 Build 0)  -->
<svg version="1.1" xmlns="http://www.w3.org/2000/svg" xmlns:xlink="http://www.w3.org/1999/xlink" x="0px"
	 y="0px" viewBox="0 0 315.2 84.4" style="enable-background:new 0 0 315.2 84.4;" xml:space="preserve">
<style type="text/css">
	.st0{fill:#FFFFFF;}
</style>
<g>
	<path class="st0" d="M15,15.3c-2.2-0.6-4.6-2.7-5.9-4.9v5.9H6.9v-5.4c-1.5,2-4,3.6-6.7,4.3L0,14.8c2-1.1,4.1-3,5-4.9H0.5V9.3h6.4V8
		h2.2v1.3h6.5v0.6H9.5c1.9,1.7,3.9,2.6,6.6,2.9L15,15.3z M3.7,6.7c0.6,0.2,1,0.2,1.3,0.2c0.6,0,0.6-0.3,0.7-1
		c0.1-0.8,0.2-2.2,0.2-3.3H4.7C4.4,5.2,3.1,6.8,0.6,8.1L0.3,7.7c1.5-1.2,2.2-2.6,2.4-5H0.8V2.1h2c0-0.6,0-1.1,0-1.8h1.9
		c0,0.6,0,1.2,0,1.8h3.2c0,1.5-0.1,3.1-0.3,4.1C7.4,7.5,7.2,8.1,6.2,8.1c-0.6,0-1.4-0.2-2.6-0.6L3.7,6.7L3.7,6.7z M8.9,7.6V1.7H15
		v5.9H8.9z M13,2.3h-2V7h2V2.3z"/>
	<path class="st0" d="M18,15.6v-0.7h6.9v-4.3H20V10h12.1v0.6h-4.9v4.3h6.9v0.7H18z M18.6,8.2c2.5-0.7,4.1-2.2,4.4-5l2.4,0.6
		c-0.8,3.3-3,4.8-6.6,5L18.6,8.2z M30.9,5.2c0.3-0.7,0.5-1.7,0.6-2.5H20.9v2.6h-2.3V2h6.2V0.2h2.4V2H34v1.1C33.4,4,32.3,5,31.4,5.5
		L30.9,5.2z M28.4,8.4c-1.3,0-1.8-0.5-1.8-1.7V3.4h2.1v2.8c0,0.3,0.1,0.5,0.4,0.5h2.1c0.7,0,0.9-0.2,1.2-1.6l0.7,0.3
		c-0.3,2.6-0.7,3.1-1.8,3.1L28.4,8.4L28.4,8.4z"/>
	<path class="st0" d="M49.3,6.8c0.3-1.1,0.4-2.2,0.4-3.3h-4.5v4.1H43V3.5h-4.4v3.1h-2.2V2.8h6.5V1.5h-6V0.9h14v0.6H45v1.4h6.8v0.6
		c-0.4,1.4-1.3,2.8-2.2,3.6L49.3,6.8z M44.4,16c-1.2,0-1.7-0.7-1.7-1.9v-0.9H40v1.1h-2.1V8.1h11.9v5.1h-5v0.5c0,0.5,0.1,0.6,0.8,0.6
		h3.9c0.7,0,1.1-0.1,1.8-2.4l0.6,0.3c-0.6,3.7-1.3,3.8-2.3,3.8H44.4z M39.1,5.2V4.6h3.5v0.6H39.1z M39.1,7V6.4h3.5V7
		C42.6,7,39.1,7,39.1,7z M42.7,8.7H40v1.5h2.7V8.7z M42.7,10.9H40v1.6h2.7V10.9z M47.7,8.7h-2.9v1.5h2.9V8.7z M47.7,10.9h-2.9v1.6
		h2.9V10.9z M45.6,5.2V4.6h3.5v0.6H45.6z M45.6,7V6.4h3.5V7C49.1,7,45.6,7,45.6,7z"/>
	<path class="st0" d="M63.6,8.5v5.3c0,1.6-0.6,2.5-2.4,2.5c-0.9,0-2.1-0.3-3.7-0.8v-0.8c1,0.3,1.7,0.4,2.3,0.4
		c1.1,0,1.3-0.5,1.3-1.4V8.5H54V7.8h7.1V5.3C62.5,4.4,63.7,3,64.4,2h-8.1V1.3h11.9V2c-1.3,1.2-3,2.5-4.6,3.1v2.6h6.6v0.7L63.6,8.5
		L63.6,8.5z"/>
	<path class="st0" d="M87,14.9c-1.5-1.7-2.4-3.8-3-6v7.4h-2V9.4c-1,2.1-2.4,3.9-4.3,5.5l-0.3-0.5c1.5-2,2.5-4.1,3.2-6.7h-2.1
		c0.1,0.1,0.4,0.6,0.5,0.7l-1.7,1.5C77,8.2,76.7,7.2,76.4,6v10.2h-1.9v-8c-0.6,1.4-1.4,2.8-2.1,3.9L72,11.7c1-2.2,1.8-5.2,2.2-7.6
		h-1.9V3.5h2.2V0.1h1.9v3.4h2v0.6h-2v1.1C77,5.9,77.5,6.4,78,7.1h4V4h-1.8c-0.5,1-1.2,1.9-1.9,2.7l-0.4-0.4c0.8-1.9,1.1-3.7,1.2-5.8
		l2.3,0.6c-0.3,0.8-0.5,1.5-0.8,2.2H82V0h2.1v3.3h3.2v0.6H84V7h3.9v0.6h-3.7c1,2.1,2.3,3.5,4,4.5L87,14.9z"/>
	<path class="st0" d="M98.9,11.9c-2.4,1-4.5,1.8-8,2.7l-0.4-2.4c1.1-0.1,2.1-0.1,3.1-0.2V8.1H91V7.3h7.2v0.8h-2.5v3.6
		c1-0.1,2.1-0.3,3.1-0.5L98.9,11.9L98.9,11.9z M106.2,11.5c-0.5,3.4-1.3,4.8-2.3,4.8c-0.7,0-1.5-0.7-2.4-1.8
		c-1.5-1.8-2.2-5.3-2.4-9.8h-8.4V3.9H99c-0.1-1.2-0.1-2.4-0.1-3.7h2.2c0,1.3,0,2.5,0,3.7h4.8v0.8h-4.8c0.2,4.2,0.7,7.3,2.3,8.8
		c0.3,0.3,0.5,0.5,0.7,0.5c0.4,0,0.6-0.7,1.3-2.8L106.2,11.5z M103.1,3.7c-0.5-1.3-0.9-2.1-1.4-3l0.4-0.5c1,0.5,1.8,1,2.8,1.9
		L103.1,3.7z"/>
	<path class="st0" d="M123,7.8c-2.4-1-4.9-2.9-6.8-5.3c-2,2.5-4.2,3.9-7.9,5.2L108,7.2c3.7-2.1,5.4-4.5,6.6-7.1l2.8,0.7
		c-0.3,0.4-0.5,0.8-0.8,1.1c2.2,1.7,4.9,2.7,7.7,3.2L123,7.8z M121.3,16.4c-0.5-0.9-1.1-1.7-1.7-2.4c-3.2,0.8-6.8,1.6-10.2,2.1
		l-0.5-2.4c1,0,1.7,0,2.6,0c0.9-1.2,1.6-2.6,1.9-3.7h-4.9V9.4h14.8V10h-6.8c-1.2,1.3-2.7,2.8-4.2,3.7c2.2,0,4.6-0.1,6.6-0.3
		c-0.4-0.5-1-1.1-1.5-1.5l0.4-0.5c1.9,0.8,3.4,1.6,5.1,2.9L121.3,16.4z M112.1,6.9V6.3h7.9v0.6H112.1z"/>
	<path class="st0" d="M128.4,16.3V9.4c-0.6,0.6-1.3,1.2-2.1,1.7l-0.3-0.4c2.1-2.2,3.1-4.2,3.9-6.6h-3.6V3.5h1.9V0.2h2.1v3.3h2.3v0.6
		c-0.6,1.1-1.3,2.1-2,3c1,0.7,1.7,1.3,2.6,2.1l-1.7,1.6c-0.3-1.2-0.6-2.3-1-3.3v8.9L128.4,16.3L128.4,16.3z M132.1,15.4v-0.8h4V6.7
		H133V5.9h3.1V0.1h2.2v5.8h3.3v0.8h-3.3v7.9h3.9v0.8H132.1z"/>
	<path class="st0" d="M146,15.2c-0.1-1.4-0.1-3-0.1-4.6c0-3.1,0.2-6.4,0.5-9.2l2.5,0.2c-0.3,2.5-0.5,5.4-0.5,8.1
		c0,1.9,0.1,3.8,0.3,5.3L146,15.2z M159.4,14c-0.7-0.4-1.7-0.9-2.6-1.2v0.3c0,1.9-0.8,2.4-3.5,2.4H153c-2,0-3.9-1-3.9-2.4
		c0-1.5,1.1-1.8,3.5-1.8c0.6,0,1.1,0.1,1.8,0.2L154.2,6c-1,0-2,0-2.9,0c-0.7,0-1.3,0-1.7,0V5.2c0.6,0,1.5,0,2.5,0c0.7,0,1.4,0,2.1,0
		c0-1.4-0.1-2.3-0.1-3.6h2.4c0,1.4,0,2.2,0,3.5c1.1-0.1,2.1-0.1,3-0.2l0.1,0.8c-1,0.1-2,0.1-3.1,0.2c0,2,0.1,4.1,0.2,6.1
		c1,0.4,2.1,0.8,3,1.2L159.4,14z M154.5,12.8v-0.7c-0.6-0.1-1.2-0.3-1.8-0.3c-0.8,0-1.5,0.1-1.5,1.1s0.6,1.7,1.9,1.7
		C154.1,14.6,154.6,14.1,154.5,12.8L154.5,12.8C154.6,12.8,154.5,12.8,154.5,12.8z"/>
	<path class="st0" d="M165.9,16.4c-0.6-1.3-2-3.2-3.4-4.2l0.6-0.6c2.1,0.6,4,1.7,5,2.8L165.9,16.4z"/>
	<path class="st0" d="M180.1,11.1c-1.8,1.2-3.8,2.2-5.8,3l-0.5-2.5c0.6-0.1,1.2-0.1,1.9-0.2V5.9h-1.5V5.3h1.5V0.7h2.1v4.6h1.8v0.6
		h-1.8v5.2c0.8-0.2,1.5-0.4,2.3-0.6V11.1z M182.6,15.8c-1.6,0-2.3-0.6-2.3-2.1V6.9l-1.8,0.5V6.6l1.8-0.5v-4h2v3.4l1.4-0.3v-5h2v4.5
		l3.6-0.9v1.1c0,1,0,2.5-0.1,4.1c-0.1,1.5-0.7,2.2-1.8,2.2c-0.5,0-1-0.1-1.7-0.5v1.1h-2V5.9l-1.4,0.3v7c0,0.5,0.1,0.6,0.7,0.6h4.3
		c1.1,0,1.4-0.3,2-3l0.7,0.3c-0.4,3.8-0.9,4.5-2.7,4.5h-4.7V15.8z M185.6,5.5v4.7c0.3,0.1,0.5,0.1,0.7,0.1c0.6,0,0.8-0.4,0.8-1.3
		c0.1-1.4,0.1-2.7,0.1-3.9L185.6,5.5z"/>
	<path class="st0" d="M197,11.6c-1.4,1-2.9,1.9-4.7,2.7l-0.4-2.5c0.6,0,1.1-0.1,1.6-0.1v-6h-1.4V5.1h1.4V0.8h2v4.3h1.4v0.6h-1.4v5.6
		c0.5-0.1,1-0.2,1.5-0.4L197,11.6L197,11.6z M202.4,11.8c-1.5,1.1-3.1,2.1-5.7,3.2l-0.5-2.2c2-0.3,4.6-1,6.2-1.5V11.8z M208.1,11.6
		c-0.2,3.4-0.8,4.8-1.5,4.8c-0.5,0-1.1-0.6-1.8-1.5c-0.3-0.5-0.6-1.1-0.9-1.8c-0.9,1-2,1.9-3.4,2.8l-0.3-0.5
		c1.4-1.3,2.4-2.5,3.2-3.9c-0.4-2-0.7-4.4-0.8-7.4h-5.7V3.5h5.7c-0.1-1-0.1-2.1-0.1-3.3h2c0,1.1,0,2.2,0.1,3.3h3.4v0.6h-3.4
		c0.1,1.6,0.2,3.2,0.3,4.5c0.4-0.9,0.7-2,0.9-3.1l1.9,0.8c-0.6,1.9-1.3,3.5-2.3,5c0.3,1.1,0.6,1.9,1,2.4c0.2,0.3,0.3,0.4,0.5,0.4
		c0.3,0,0.5-0.7,0.8-2.7L208.1,11.6z M197.3,10.7V5.6h4.6v5.1H197.3z M200.2,6.3h-1.1v3.8h1.1V6.3z M206.1,3.3
		c-0.5-1.2-0.9-1.9-1.4-2.6l0.4-0.4c0.9,0.5,1.6,0.8,2.5,1.6L206.1,3.3z"/>
	<path class="st0" d="M215.4,13.4c0.9,0.5,1.4,0.7,1.9,0.7s0.8-0.4,1.1-1.2c0.6-1.5,0.9-3.5,0.9-5.8c0-1.1-0.5-1.6-1.2-1.6l0,0
		l-1.2,0.1c-1.1,3.4-2.1,6.1-3.6,9.3l-2.4-1.1c1.5-2.8,2.5-5.1,3.4-8c-0.9,0.1-2,0.3-3,0.5l-0.1-0.8c1.1-0.2,2.3-0.3,3.3-0.4
		c0.3-1.2,0.7-2.4,0.9-3.9l2.5,0.5c-0.3,1.2-0.6,2.2-0.9,3.2l1.2-0.1h0.3c2,0,3.1,0.8,3.1,2.6c0,2.1-0.3,4.5-0.8,5.9
		c-0.7,1.6-1.4,2.3-2.3,2.3c-0.9,0-1.9-0.5-3.4-1.5L215.4,13.4z M224.4,9.9c-0.7-2.1-2.2-4.3-3.3-5.3l0.4-0.5c1.6,0.9,3.7,2.4,5.1,4
		L224.4,9.9z"/>
	<path class="st0" d="M234.2,15.5c3.5-0.6,5.1-1.7,5.5-3.9c0-0.2,0.1-0.5,0.1-0.7c0-1.4-1-2.3-2.5-2.3c-0.1,0-0.2,0-0.3,0
		c-1.4,0.1-3.3,1-4.8,3.1l-2.4-0.3c0.2-2.6,0.5-5.5,0.8-7.7l2.6,0.3c-0.4,2.1-0.6,4.4-0.6,5.9c0.9-1.1,2.9-1.9,4.4-2.1
		c0.5-0.1,0.9-0.1,1.4-0.1c2.8,0,4.3,1.1,4.3,3.3c0,0.3,0,0.5-0.1,0.8c-0.4,2.6-3.5,4-8.1,4.4L234.2,15.5z M238.1,4.8
		c-2.3-0.7-4.1-1.9-5.5-3l0.2-0.5c1.7,0.5,3.4,0.9,6,1L238.1,4.8z"/>
	<path class="st0" d="M250.2,15.2v1.1h-2.3V6h-2V5.4h2V1.2h2.3v4.2h2.3V0.5h2.1v4.9h2.9V0.5h2.1v4.9h2.4V6h-2.4v6.2h-7.1V6h-2.3v8.6
		h11.3v0.6H250.2z M257.5,6h-2.9v5.5h2.9V6z"/>
	<path class="st0" d="M273.7,16.3V9.7h1.7c-0.8-0.8-1.5-1.7-2.1-2.7h-1.8c-0.6,1.1-1.6,2.1-2.5,2.7h1.5v1.4c0,3.4-1.6,4.7-5.5,5.2
		l-0.1-0.5c2.5-0.9,3.4-2.3,3.4-4.8v-0.8c-1.3,0.7-2.7,1.3-4.2,1.6l-0.2-0.6c2.2-1,4-2.3,4.8-4.2h-3.2V1h12.8v6H274
		c1.8,1.7,3.9,2,6,2.2l-1,2.5c-1-0.3-2.2-0.9-3.1-1.6v6.2H273.7L273.7,16.3z M270.8,1.7h-3v2h3V1.7z M270.8,4.3h-3v2.1h3V4.3z
		 M276.1,1.7H273v2h3.1V1.7z M276.1,4.3H273v2.1h3.1V4.3z"/>
	<path class="st0" d="M295.9,14.6c-1.4-1-2.7-1.6-3.9-2c0,0.1,0,0.3,0,0.4c0,2-0.8,2.7-3,2.7c-0.5,0-1,0-1.6-0.1
		c-2.4-0.3-4-1.2-4.1-2.5c0-0.1,0-0.2,0-0.3c0-1.3,1.3-2,3.7-2h0.5c0.6,0,1.4,0.1,1.9,0.2l-0.1-3.4c-0.6,0-1.1,0-1.6,0
		c-1.3,0-2.4,0-3.6-0.1V6.7c1.4,0.1,2.6,0.1,4.2,0.1h1l-0.1-2.7c-0.6,0-1.2,0-1.7,0c-1.4,0-2.6,0-3.8-0.1V3.2
		c1.4,0.1,2.7,0.1,4.4,0.1h1.1c0-0.8,0-1.5-0.1-2.4h2.6v2.3c1.7-0.1,2.8-0.1,4.3-0.3l0.1,0.8c-1.5,0.2-2.7,0.2-4.4,0.2
		c0,1,0,1.7,0,2.7c1.5,0,2.6-0.1,4.1-0.3l0.1,0.8c-1.5,0.1-2.6,0.2-4.1,0.2c0.1,1.5,0.1,2.7,0.1,4c1.4,0.5,2.7,1,4.4,2L295.9,14.6z
		 M289.5,11.9c-0.6-0.2-1.4-0.3-1.9-0.3c-1.2,0-2.1,0.2-2.1,1.5c0,1.1,0.8,1.5,2.1,1.7c0.1,0,0.2,0,0.3,0c1.1,0,1.6-0.7,1.6-2.1
		V11.9L289.5,11.9z"/>
	<path class="st0" d="M312.4,15.7c-5-0.3-7-2.4-7-5.3c0-3,3-5.8,6.7-6.8c-3,0.1-7.5,0.4-11.6,1l-0.2-1c4.1-0.5,9.1-0.9,14.6-1
		l0.1,1.2c-5.3,0.8-7.3,3.4-7.3,6.1c0,1.9,1.4,3,5.3,3.2L312.4,15.7z M312.3,9.2c-0.4-1.2-0.8-2.1-1.3-2.8l0.3-0.3
		c0.9,0.5,1.7,1.1,2.3,1.8L312.3,9.2z M314,8c-0.5-1-1-1.8-1.5-2.5l0.3-0.3c0.8,0.4,1.6,0.8,2.4,1.4L314,8z"/>
	<path class="st0" d="M31,48.3v-2.9c-2.8,1.4-5.1,2.1-5.1,2.1l-0.8-2.3c0,0,0.9,0,1.5-0.1v-6h-2v-0.6h16.2v0.6H33v9.2H31L31,48.3z
		 M26.8,37.5v-4.6h11.9v4.6H26.8z M31,39.1h-2.3v1.4H31V39.1z M31,41.1h-2.3v1.5H31V41.1z M31,43.3h-2.3V45c0.6-0.1,1.6-0.2,2.3-0.3
		V43.3z M36.7,33.5H29v1.3h7.7V33.5z M36.7,35.5H29v1.4h7.7V35.5z M39.6,48.2c-1.1-0.5-2.4-1.4-3-2.1c-0.9,0.9-2,1.6-3,1.9l-0.3-0.5
		c1-0.6,2.1-1.7,2.5-2.5c-0.7-1.2-1.4-2.7-1.7-4.2h-0.7v-0.6h6.4v0.7c-0.5,1.5-1.1,2.7-1.9,3.8c0.8,0.5,2,1,3,1.2L39.6,48.2z
		 M34.6,40.8c0.5,1.1,1.2,2,1.9,2.7c0.4-0.7,0.8-1.7,0.9-2.7H34.6z"/>
	<path class="st0" d="M54.4,48c-1.7,0-2.6-0.4-2.6-2.3v-5.2h-2c0,3.6-1.7,7-6.9,7.9l-0.2-0.5c3.4-1.5,4.6-4.1,4.6-7.4H43v-0.7h7
		v-3.7h-2.6c-0.9,1.3-2,2.5-3.3,3.5l-0.4-0.4c1.1-1.7,1.9-4,2.2-6.1l2.6,0.8c-0.2,0.5-0.4,1.1-0.7,1.6h2.3v-3.2h2.3v3.2H57v0.6h-4.6
		v3.7h6.1v0.7h-4.4v5.1c0,0.5,0.2,0.5,0.6,0.5h1.7c1,0,1.3-0.2,1.7-2.5l0.7,0.3c-0.2,4-1.2,4.2-2.5,4.2L54.4,48
		C54.4,48.1,54.4,48,54.4,48z"/>
	<path class="st0" d="M66.5,44.1c-1.8,1.1-3.2,1.9-5.4,2.9l-0.5-2.6c1.1-0.1,2.1-0.2,3.1-0.3c0.4-2.3,0.7-4.7,0.9-6.9l2.1,0.6
		c-0.6,2.1-1.4,4.3-2.3,6.2c0.7-0.1,1.4-0.3,2.2-0.5L66.5,44.1L66.5,44.1z M60.7,36.7V36h2v-3.3h2V36h2v0.7H60.7z M62,43.3
		c-0.1-2.4-0.3-4.2-0.6-5.9l0.5-0.2c0.7,1.5,1.4,2.9,2,4.9L62,43.3z M72.7,47.4c0.4,0.1,0.6,0.1,0.9,0.1c0.6,0,0.7-0.5,0.7-1.5v-4.6
		h-0.9v5.7h-1.5v-5.7H71v6.2h-1.5v-6.2h-0.8v6.9h-1.9v-7.6h2.8c0-0.3,0.1-0.9,0.2-1.7h-3.1v-0.6h10.2V39h-4.6
		c-0.7,0.9-1.4,1.4-1.8,1.7h5.7v5.4c0,1.2-0.3,2.1-1.7,2.1c-0.5,0-1-0.1-1.7-0.3L72.7,47.4C72.8,47.4,72.7,47.4,72.7,47.4z M67.1,37
		v-3.9H69v3.3h1.4v-4.2h1.9v4.2h1.4v-3.3h1.9V37C75.6,37,67.1,37,67.1,37z"/>
	<path class="st0" d="M85.9,46.4c3.7-0.6,5.3-2.5,5.5-5.3c0-0.1,0-0.3,0-0.4c0-3.1-1.9-4.9-4.1-4.9c-0.4,4.9-1.8,8.2-4.4,9.8
		c-0.5,0.3-1,0.5-1.4,0.5c-1.2,0-2.1-1.1-2.1-3.2c0-0.3,0-0.7,0.1-1c0.4-3.4,3.6-6.6,7.9-6.6c4.1,0,6.8,2.1,6.8,5.6
		c0,0.1,0,0.3,0,0.4c-0.2,3.5-3.1,5.5-8,5.7L85.9,46.4z M81.8,41.4c0,0.4-0.1,0.7-0.1,1c0,1,0.3,1.5,0.7,1.5c0.2,0,0.5-0.1,0.8-0.3
		c1.6-1.1,2.8-3.7,3.4-7.7C83.7,36.2,82,38.9,81.8,41.4z"/>
	<path class="st0" d="M99.2,42.2c-0.7,0.3-1.5,0.6-2.1,0.8l-0.5-2.4c0.8-0.1,1.7-0.1,2.6-0.3v-3.8h-2.3v-0.6h2.3v-3.5h2.1v3.5h1.5
		v0.6h-1.5v3.6c0.6-0.1,1.2-0.2,1.7-0.3v0.6c-0.5,0.3-1.1,0.6-1.7,0.9v4.5c0,1.7-0.3,2.5-1.6,2.5c-0.6,0-1.4-0.2-2.5-0.6v-0.6
		c0.6,0.2,1,0.3,1.3,0.3c0.6,0,0.8-0.4,0.8-1.6L99.2,42.2L99.2,42.2z M111.7,48.3c-1.8-0.7-3.2-1.5-4.4-2.6c-1.5,1.1-3.3,2-5.4,2.6
		l-0.3-0.6c1.7-0.9,3.2-2,4.5-3.3c-1.2-1.4-2-3.2-2.6-5.1h-0.8v-0.6h3.3v-3.1h-3.5V35h3.5v-2.9h2.2V35h4.1v0.6h-4.1v3.1h3.5v1.1
		c-0.8,1.7-1.7,3.2-3,4.5c1.2,0.7,2.5,1.2,3.9,1.4L111.7,48.3z M104.3,39.4c0.8,1.5,1.8,2.8,3,3.9c0.9-1.1,1.6-2.4,2.1-3.9H104.3z"
		/>
	<path class="st0" d="M121.7,48.3V36.9h-2.1c0.1,0,0.4,0.2,0.4,0.2c-0.5,0.7-1,1.4-1.5,1.9v9.3h-2.1v-7.1c-0.8,0.7-1.5,1.1-1.5,1.1
		l-0.4-0.5c0,0,1.7-2,3.2-6l1.6,1v-0.5h2.3v-3.9h2.1v3.9h2.5v0.6h-2.5v11.4H121.7z M114.8,36.9c0,0,1.4-1.9,2.2-4.7l2.4,1.1
		c-2.1,2.8-4.2,4.1-4.2,4.1L114.8,36.9z M119.2,45.6c0.4-2.3,0.6-4.4,0.6-7.5l1.8,0.4c-0.3,2.8-0.8,5.1-1.8,7.4L119.2,45.6z
		 M124.7,45.2c-0.1-2.4-0.3-4.7-0.7-6.8l0.5-0.3c0.8,1.8,1.6,3.9,2.1,5.8L124.7,45.2z M124.5,36c-0.1-1.3-0.4-2.6-0.4-2.6l0.4-0.2
		c0,0,0.9,0.9,1.5,2L124.5,36z M127.6,38.1h-1.8v-0.6h5.1v0.6h-1.2v7.7c0,1.7-0.4,2.5-1.8,2.5c-0.7,0-1.5-0.2-2.7-0.6v-0.6
		c0.6,0.2,1.1,0.3,1.5,0.3c0.8,0,1-0.5,1-1.6v-7.7C127.7,38.1,127.6,38.1,127.6,38.1z M126.1,34v-0.6h4.3V34H126.1z"/>
	<path class="st0" d="M146,47.6c-1,0.1-1.8,0.2-3,0.2c-4.4,0-6-1-6-2.5c0-0.2,0-0.4,0.1-0.6c0.3-1.3,2.3-2.9,4.9-4
		c-0.2-1.3-0.5-1.8-0.9-1.8c-0.1,0-0.1,0-0.2,0c-1.1,0.2-2.8,1.5-5.3,4.4l-1.9-1.6c1.5-1.3,3-3.2,4.2-5.3c-1.4,0.1-2.6,0.1-3.3,0.1
		v-0.8h0.3c0.8,0,2.1-0.1,3.5-0.1c0.5-0.9,0.9-1.9,1.2-2.8l2.5,0.8c-0.3,0.6-0.6,1.3-0.9,1.8c1.9-0.1,3.7-0.3,4.9-0.5l0.1,0.8
		c-1.4,0.2-3.4,0.3-5.4,0.5c-0.7,1.2-1.4,2.3-2.2,3.3c0.8-0.7,1.7-1.3,2.4-1.4c0.4-0.1,0.7-0.1,1-0.1c1.2,0,1.8,0.6,2.2,1.9
		c1-0.3,2.4-0.7,3.5-1l0.3,0.9c-1.2,0.2-2.6,0.6-3.5,0.9c0.1,0.8,0.2,1.6,0.2,2.9l-2.5,0.2c0-0.5,0-1,0-1.4c0-0.3,0-0.6,0-0.8
		c-2,0.8-3.2,1.9-3.2,2.9c0,0.9,0.6,1.5,4.2,1.5c1.2,0,2-0.1,3.1-0.3v1.9L146,47.6L146,47.6z"/>
	<path class="st0" d="M163.2,46.5c-1.9,0.4-3.8,0.6-6.8,0.6c-4.5,0-6.4-1.4-6.4-3.1c0-1.1,0.7-2.4,2-3.5l0.6,0.4
		c-0.7,0.8-1.1,1.5-1.1,2c0,1.2,1.6,1.9,4.9,1.9c2.7,0,4.6-0.3,6.4-0.8L163.2,46.5z M161,37.5c-2.7-0.9-5.7-1.4-8.9-1.5l0.1-0.7
		c2.5-0.4,4.3-0.6,6.5-0.6c0.8,0,1.6,0,2.5,0.1L161,37.5z M161.9,36.4c-0.4-1.2-0.8-2.1-1.3-2.8l0.3-0.3c0.9,0.5,1.7,1.1,2.3,1.8
		L161.9,36.4z M163.6,35.1c-0.5-1-1-1.8-1.5-2.5l0.3-0.3c0.8,0.4,1.5,0.8,2.4,1.4L163.6,35.1z"/>
	<path class="st0" d="M169.5,41.7c-0.6,0.3-1.2,0.7-1.8,1l-0.6-2.3c0.8-0.1,1.6-0.3,2.4-0.5v-3.6h-2.1v-0.6h2.1v-3.5h2v3.5h1.9v0.6
		h-1.9v3.1l1.9-0.7v0.5l-1.9,1.3v5.4c0,1.7-0.4,2.5-1.6,2.5c-0.6,0-1.4-0.2-2.4-0.6v-0.6c0.5,0.2,0.9,0.3,1.2,0.3
		c0.6,0,0.8-0.4,0.8-1.6L169.5,41.7L169.5,41.7z M183,48c-0.8,0.1-1.7,0.1-2.5,0.1c-0.9,0-1.7,0-2.4-0.1c-1.5-0.2-2.5-1.3-3.1-3.2
		c-0.6,1.3-1.5,2.3-3.2,3.6l-0.3-0.3c1.5-2.1,2-4,2.1-7l2.1,0.4c-0.1,0.9-0.2,1.7-0.4,2.4c0.5,1,1.1,1.5,1.8,1.7v-5H173V40h10.5v0.6
		H179v2.2h3.4v0.6H179v2.5h0.4c1.1,0,2.6-0.1,4-0.4L183,48z M174,38.7v-5.9h7.9v5.9H174z M180,33.5h-4v1.9h4V33.5z M180,36.1h-4v2h4
		V36.1z"/>
	<path class="st0" d="M187.2,48.3V39c-0.5,0.6-1.1,1.3-1.7,2l-0.4-0.4c1.7-2.7,2.5-5.4,3-8.5l2.3,0.7c-0.4,1.1-0.8,2.1-1.3,3.1v12.4
		H187.2L187.2,48.3z M189.7,47.9c1.3-1.7,2.3-3.2,2.9-5.1l2.6,1.2c-1.3,1.8-3,3.2-5.1,4.4L189.7,47.9z M189.8,42.5v-0.6h2.5V37h-1.9
		v-0.6h1.9v-3.7h2.2v3.7h2.2v-3.7h2.1v3.7h2V37h-2v4.9h2.6v0.6H189.8z M196.7,36.9h-2.2v4.9h2.2V36.9z M199.4,48.3
		c-0.9-1.9-1.7-3.5-2.7-4.8l0.5-0.5c1.7,1,3,1.9,4.3,3L199.4,48.3z"/>
	<path class="st0" d="M211.6,42.4c-0.4,0.9-0.7,1.6-1.1,2.2c-1,1.6-2,2.4-2.9,2.4s-1.7-0.9-2.1-2.5c-0.3-1.1-0.4-2.4-0.4-3.9
		c0-1.7,0.1-3.7,0.4-5.8l2.6,0.2c-0.4,2.3-0.5,4.3-0.5,5.9c0,1.1,0.1,2,0.3,2.7c0.2,0.8,0.4,1.2,0.7,1.2s0.6-0.3,1.1-0.9
		c0.3-0.4,0.7-1,1.1-2L211.6,42.4z M216,44.3c-0.1-3.6-0.6-6.3-2-9l0.5-0.4c2.4,2.6,3.5,5,4.2,8.6L216,44.3z"/>
	<path class="st0" d="M220.5,46.3c1.4-2.7,2.6-5.9,3.5-9c-1,0.1-1.9,0.1-2.6,0.1v-0.8h0.2c0.7,0,1.6-0.1,2.6-0.1
		c0.3-1.2,0.5-2.3,0.7-3.5l2.5,0.4c-0.2,1-0.4,1.9-0.7,2.9c1.3-0.1,2.6-0.3,3.7-0.4l0.1,0.8c-1.3,0.1-2.7,0.3-4,0.4
		c-0.9,3.5-2.1,7-3.6,10.2L220.5,46.3z M234.6,47.2c-0.4,0-0.8,0.1-1.3,0.1c-1.1,0-2.3-0.1-3.4-0.3c-2.4-0.3-3.4-1.3-3.4-2.4
		c0-0.8,0.5-1.7,1.4-2.5l0.5,0.4c-0.5,0.5-0.8,1-0.8,1.3c0,0.6,0.7,1,2.5,1.2c0.6,0.1,1.3,0.1,2,0.1c0.9,0,1.7-0.1,2.4-0.2
		L234.6,47.2z M234.6,40.5c-1.9-0.6-3.9-1-5.9-1h-0.4v-0.7c2.1-0.3,4.1-0.5,6.4-0.5L234.6,40.5z"/>
	<path class="st0" d="M248.8,42.3c-1.5,2.7-3.5,4.6-5.9,5.2c-0.6,0.2-1.1,0.3-1.6,0.3c-2.1,0-3.3-1.6-3.3-5.4c0-0.2,0-0.4,0-0.6
		c0.1-3.3,0.2-5.5,0.3-8.4l2.7,0.2c-0.1,2.9-0.4,5-0.4,8.1v0.4c0,2.8,0.7,3.9,1.9,3.9c0.2,0,0.4,0,0.6-0.1c2-0.6,3.5-1.8,5.2-4.3
		L248.8,42.3z"/>
	<path class="st0" d="M263.7,46.6c-1.4-1-2.7-1.6-3.9-2c0,0.1,0,0.3,0,0.4c0,2-0.8,2.7-3,2.7c-0.4,0-1,0-1.6-0.1
		c-2.4-0.3-4-1.2-4.1-2.5c0-0.1,0-0.2,0-0.3c0-1.3,1.3-2,3.7-2h0.5c0.6,0,1.4,0.1,1.9,0.2l-0.1-3.4c-0.6,0-1.1,0-1.6,0
		c-1.3,0-2.4,0-3.6-0.1v-0.8c1.4,0.1,2.6,0.1,4.2,0.1h1l-0.1-2.7c-0.6,0-1.2,0-1.7,0c-1.4,0-2.6,0-3.8-0.1v-0.8
		c1.4,0.1,2.7,0.1,4.4,0.1h1.1c0-0.8,0-1.5-0.1-2.4h2.6v2.3c1.7-0.1,2.8-0.1,4.3-0.3l0.1,0.8c-1.5,0.2-2.7,0.2-4.4,0.2
		c0,1,0,1.7,0,2.7c1.5,0,2.6-0.1,4.1-0.3l0.1,0.8c-1.5,0.1-2.6,0.2-4.1,0.2c0.1,1.5,0.1,2.7,0.1,4c1.3,0.5,2.7,1,4.4,2L263.7,46.6z
		 M257.3,43.9c-0.6-0.2-1.3-0.3-1.9-0.3c-1.2,0-2.1,0.2-2.1,1.5c0,1.1,0.8,1.5,2.1,1.7c0.1,0,0.2,0,0.3,0c1.1,0,1.6-0.7,1.6-2.1
		V43.9L257.3,43.9z"/>
	<path class="st0" d="M270.6,47.6c2.2-0.7,3.6-2.1,4-4.2c-0.3,0.2-0.8,0.3-1.4,0.3c-2.2,0-3.3-1.3-3.3-2.9s1.2-2.9,3.3-2.9
		c0.5,0,0.8,0.1,1.1,0.2c0-0.5,0.1-1.2,0.1-1.7v-0.2c-2.9,0-5.4,0.1-7.5,0.1v-0.8h0.9c1.9,0,4.1,0,6.6-0.1c0-0.9-0.1-1.7-0.1-2.5
		l2.6-0.1c0,0.7,0,1.5,0,2.6c2.1,0,3.5-0.1,5.1-0.1v0.8h-0.8c-1.2,0-2.5,0-4.2,0.1v1.1c0,0.8,0,1.5,0,2.4c0.2,0.5,0.4,1.4,0.4,2v0.1
		c-0.2,3.4-2,5.4-6.1,6.3L270.6,47.6z M272,40.9c0,1.3,0.6,2.2,1.4,2.2s1.4-0.8,1.4-2.2c0-1.5-0.6-2.1-1.4-2.1h-0.1
		C272.5,38.8,272,39.5,272,40.9L272,40.9L272,40.9z"/>
	<path class="st0" d="M287.3,48.4c-1.4,0-2.6-1.1-2.6-2.5s1.1-2.6,2.6-2.6s2.6,1.1,2.6,2.6C289.8,47.2,288.7,48.4,287.3,48.4z
		 M287.3,44c-1,0-1.8,0.8-1.8,1.8s0.8,1.8,1.8,1.8s1.8-0.8,1.8-1.8C289.1,44.9,288.2,44,287.3,44z"/>
	<path class="st0" d="M42.7,78.1l-0.3-1.7c2.1,0.1,5.3,0.1,8.3,0.1h4.2v1.6H42.7z"/>
	<path class="st0" d="M68.2,81.4c-0.6-0.7-1.3-1.5-2.1-2.2c-1.7,2.2-4.1,3.8-7,4.7l-0.4-0.5c2.6-1.2,4.7-3.1,6-5.4
		c-1.3-1-2.7-1.9-4-2.6l0.2-0.5c1.4,0.5,2.9,1.1,4.4,1.8c0.7-1.6,1.2-3.4,1.5-5.3l2.5,0.6c-0.4,2.1-1.1,4-2.1,5.7
		c0.9,0.5,1.8,1.1,2.6,1.7L68.2,81.4z"/>
	<path class="st0" d="M77.8,83.7v-7.2c-1.7,0.8-3.4,1.4-5.2,1.9l-0.2-0.5c3.8-1.3,7.6-4.4,9.3-6.9l2.2,1.4c-1.5,1.5-3.3,2.8-5.3,3.8
		h1.5v7.6L77.8,83.7L77.8,83.7z"/>
	<path class="st0" d="M94.9,79.7c-1.6-1.6-3.3-2.7-4.9-3.5v7.5h-2.3V71.2H90v4.2c2.2,0.5,4,1.1,6.1,2.3L94.9,79.7z M93.8,74.3
		c-0.4-1.1-0.8-2-1.3-2.7l0.3-0.3c0.8,0.5,1.6,1,2.2,1.8L93.8,74.3z M95.4,73.2c-0.4-1-0.9-1.8-1.5-2.4l0.3-0.3
		c0.7,0.4,1.5,0.8,2.3,1.4L95.4,73.2z"/>
	<path class="st0" d="M103.7,83.7v-7.2c-1.7,0.8-3.4,1.4-5.2,1.9l-0.2-0.5c3.8-1.3,7.6-4.4,9.3-6.9l2.2,1.4
		c-1.5,1.5-3.3,2.8-5.3,3.8h1.5v7.6L103.7,83.7L103.7,83.7z"/>
	<path class="st0" d="M115.3,76.8c-0.9-1.6-2.1-3-3.3-3.8l0.4-0.5c1.5,0.5,3.1,1.2,4.7,2.1L115.3,76.8z M124,75.4
		c-1.4,4-5,7.6-11.3,8.2l-0.6-2.3c6.1-0.3,9.5-2.7,11.2-6.3L124,75.4z"/>
	<path class="st0" d="M129.4,78.3c-1-1.3-2.3-2.3-3.6-3.1l0.2-0.5c1.4,0.2,3.2,0.8,4.8,1.5L129.4,78.3z M138.1,75.4
		c-1.4,4-5,7.7-11.3,8.2l-0.5-2.3c6.2-0.3,9.5-2.5,11.1-6.3L138.1,75.4z M130.9,75.3c-1.1-1.3-2.2-2.2-3.5-2.8l0.2-0.5
		c1.3,0.3,3.1,0.8,4.6,1.4L130.9,75.3z M136.5,74.6c-0.4-1-0.8-1.9-1.2-2.4l0.3-0.3c0.8,0.5,1.5,0.9,2.1,1.6L136.5,74.6z
		 M138.1,73.8c-0.4-0.9-0.9-1.6-1.4-2.2l0.3-0.3c0.7,0.4,1.4,0.7,2.1,1.3L138.1,73.8z"/>
	<path class="st0" d="M144.8,83.8l-1.5-6.3l-2.7,0.5l-0.1-0.5l2.6-0.5l-0.6-2.4l1.6-0.3l0.6,2.4l4.8-1l0.4,1
		c-0.9,1.5-1.8,2.5-3.3,3.6l-0.4-0.3c0.7-0.9,1.2-2.1,1.6-3.3l-2.9,0.6l1.5,6.3L144.8,83.8z"/>
	<path class="st0" d="M150.8,82.7c2.1-2.6,3.2-5.7,3.6-9.7l2.3,0.6c-0.8,4-2.4,7.2-5.4,9.6L150.8,82.7z M162,83
		c-0.6-3.6-1.8-7.3-3.7-10l0.6-0.4c2.3,2.5,4.2,5.6,5.7,9.3L162,83z M162,74.3c-0.9,0-1.6-0.8-1.6-1.6c0-0.9,0.8-1.6,1.6-1.6
		s1.6,0.8,1.6,1.6C163.6,73.5,162.9,74.3,162,74.3z M162,71.6c-0.6,0-1,0.5-1,1.1s0.5,1,1,1c0.6,0,1.1-0.5,1.1-1
		C163,72.1,162.6,71.6,162,71.6z"/>
	<path class="st0" d="M170,76.8c-0.9-1.6-2.1-3-3.3-3.8l0.4-0.5c1.5,0.5,3.1,1.2,4.7,2.1L170,76.8z M178.7,75.4
		c-1.4,4-5,7.6-11.3,8.2l-0.6-2.3c6.1-0.3,9.5-2.7,11.2-6.3L178.7,75.4z"/>
	<path class="st0" d="M193.1,83.8c-0.9,0.1-1.6,0.2-2.7,0.2c-3.9,0-5.3-0.8-5.3-2.2c0-0.2,0-0.4,0.1-0.5c0.2-1.1,2-2.6,4.4-3.5
		c-0.2-1.2-0.4-1.6-0.8-1.6h-0.1c-1,0.2-2.5,1.3-4.7,4l-1.7-1.4c1.3-1.2,2.7-2.9,3.7-4.8c-1.2,0.1-2.3,0.1-3,0.1v-0.7h0.3
		c0.8,0,1.9,0,3.1-0.1c0.4-0.8,0.8-1.6,1.1-2.5l2.2,0.7c-0.3,0.6-0.6,1.1-0.8,1.6c1.6-0.1,3.2-0.3,4.3-0.4l0.1,0.7
		c-1.2,0.1-3,0.3-4.8,0.4c-0.6,1.1-1.2,2-2,2.9c0.7-0.6,1.5-1.1,2.2-1.3c0.3-0.1,0.7-0.1,0.9-0.1c1,0,1.6,0.5,1.9,1.7
		c0.9-0.3,2.1-0.6,3.1-0.9l0.2,0.8c-1.1,0.2-2.3,0.5-3.1,0.8c0.1,0.7,0.2,1.5,0.2,2.6l-2.2,0.2c0-0.5,0-0.9,0-1.2c0-0.3,0-0.5,0-0.7
		c-1.8,0.7-2.9,1.6-2.9,2.6c0,0.8,0.5,1.3,3.7,1.3c1,0,1.8-0.1,2.7-0.3L193.1,83.8L193.1,83.8z"/>
	<path class="st0" d="M199.9,84.4v-6.6c-0.7,1.2-1.5,2.4-2.4,3.5l-0.4-0.4c0.8-1.7,1.7-3.5,2.3-5.6h-2.1v-0.6h2.6v-2.4
		c-0.8,0.1-1.6,0.2-2.3,0.2l-0.1-0.4c1.8-0.7,3.3-1.4,4.5-2.2l1.9,1.6c-0.6,0.2-1.4,0.3-2.1,0.5v2.7h2.4v0.6h-2.4V76
		c0.8,0.6,1.8,1.3,2.4,2.1l-1.5,1.4c-0.3-1-0.6-2-1-2.8v7.6L199.9,84.4L199.9,84.4z M209.7,84.2c-0.1-0.9-0.3-1.6-0.4-2.5
		c-1.5,0.8-3.4,1.6-5.7,2.4l-0.8-2.1c0.5,0,1.1-0.1,1.5-0.1c1-3.6,1.5-7.4,1.6-11.2l2.3,0.5c-0.5,3.7-1.5,7.3-3.2,10.6
		c1.6-0.2,3.5-0.6,4.1-0.8c-0.2-1-0.6-2-0.9-3l0.4-0.3c1.3,1.7,2.3,3.3,3.3,5.1L209.7,84.2z"/>
	<path class="st0" d="M227.1,84.2c-0.7,0-1.5,0.1-2.4,0.1c-1,0-2.2,0-3.5-0.1c-1.7-0.1-3.5-0.8-4.4-2.6c-0.6,1-1.5,2-2.5,2.8
		l-1.1-2.1c1-0.2,1.9-0.6,1.9-0.6v-5.2h-1.7v-0.6h3.6V81c1,1.1,2.1,1.5,4.1,1.5c1.7,0,4.6-0.2,6.4-0.5L227.1,84.2z M215.8,74.2
		c-0.4-1.2-0.9-2.3-1.5-3.1l0.4-0.4c1,0.5,1.9,1.1,2.9,1.8L215.8,74.2z M223.5,80.3V82h-2v-1.7H218v-0.6h3.5v-1.3h-2.9v-0.6h2.9
		v-1.3H218v-0.6h2c-0.2-0.7-0.4-1.4-0.7-2h-1.6v-0.6h3.8v-1.4h-3v-0.6h3V70h2v1.3h2.9v0.6h-2.9v1.4h3.8v0.6h-2.4l1.2,0.5
		c-0.7,0.6-1.4,1.1-2.2,1.5h3.1v0.6h-3.5v1.3h2.8v0.6h-2.8v1.3h3.6v0.6H223.5z M220.2,73.9c0.6,0.4,1.3,0.9,1.8,1.4l-1,0.6h2
		c0.4-0.6,0.7-1.3,0.9-2H220.2z"/>
	<path class="st0" d="M234.1,81.8c0.8,0.4,1.3,0.6,1.6,0.6c0.5,0,0.7-0.4,1-1c0.6-1.3,0.8-3.2,0.8-5.2c0-1-0.4-1.4-1.1-1.4l0,0h-1
		c-0.9,3.1-1.9,5.5-3.2,8.3l-2.1-1c1.4-2.5,2.2-4.5,3.1-7.1c-0.8,0.1-1.8,0.3-2.7,0.4l-0.1-0.8c1-0.1,2-0.3,3-0.4
		c0.3-1,0.6-2.2,0.8-3.4l2.3,0.4c-0.3,1-0.5,2-0.8,2.8h1.1h0.2c1.8,0,2.8,0.8,2.8,2.3c0,1.9-0.2,4-0.8,5.2c-0.6,1.4-1.2,2-2.1,2
		c-0.8,0-1.7-0.4-3-1.3L234.1,81.8z M242.2,78.7c-0.7-1.8-1.9-3.8-3-4.8l0.3-0.4c1.5,0.8,3.3,2.2,4.5,3.5L242.2,78.7z"/>
	<path class="st0" d="M249.9,83.7c3.1-0.5,4.5-1.5,4.9-3.5c0-0.2,0.1-0.4,0.1-0.6c0-1.2-0.8-2-2.2-2c-0.1,0-0.2,0-0.3,0
		c-1.3,0.1-2.9,0.9-4.2,2.8l-2.1-0.3c0.2-2.3,0.4-4.9,0.7-6.9l2.3,0.3c-0.3,1.9-0.5,3.9-0.6,5.3c0.8-0.9,2.6-1.7,3.9-1.9
		c0.4,0,0.8-0.1,1.2-0.1c2.5,0,3.9,1,3.9,2.9c0,0.2,0,0.5-0.1,0.8c-0.4,2.3-3.1,3.5-7.2,3.9L249.9,83.7z M253.3,74.1
		c-2-0.7-3.7-1.6-4.9-2.7l0.2-0.5c1.6,0.5,3.1,0.8,5.3,0.9L253.3,74.1z"/>
	<path class="st0" d="M261.3,78.1l-0.3-1.7c2.1,0.1,5.3,0.1,8.3,0.1h4.2v1.6H261.3z"/>
</g>
</svg>
